<svg width="30" height="20" viewBox="0 0 30 20" fill="none" xmlns="http://www.w3.org/2000/svg">
<path d="M24.3334 14.5001H24.8334V14.0001V10.0001C24.8334 8.80956 25.8095 7.83342 27 7.83342C28.1906 7.83342 29.1667 8.80956 29.1667 10.0001V16.6667C29.1667 17.8573 28.1906 18.8334 27 18.8334H3.00004C1.80952 18.8334 0.833374 17.8573 0.833374 16.6667V10.0001C0.833374 8.80956 1.80952 7.83342 3.00004 7.83342C4.19056 7.83342 5.16671 8.80956 5.16671 10.0001V14.0001V14.5001H5.66671H24.3334ZM7.00004 1.16675H23C24.1906 1.16675 25.1667 2.14289 25.1667 3.33341V5.86413C23.6057 6.5714 22.5 8.13033 22.5 9.96008V12.1667H7.50004V9.96008C7.50004 8.12045 6.39673 6.5591 4.83337 5.8617V3.33341C4.83337 2.14289 5.80952 1.16675 7.00004 1.16675Z" fill="#B8AFB6" stroke="#B8AFB6"/>
</svg>
